<?xml version="1.0" encoding="utf-8"?>
<!-- Generator: Adobe Illustrator 18.1.0, SVG Export Plug-In . SVG Version: 6.00 Build 0)  -->
<svg version="1.1" id="Слой_1" xmlns="http://www.w3.org/2000/svg" xmlns:xlink="http://www.w3.org/1999/xlink" x="0px" y="0px"
	 viewBox="43 -12 186 124" enable-background="new 43 -12 186 124" xml:space="preserve">
<path d="M218.8,30.4l-50.6-39c-3.8-2.9-8.7-1.2-10.9,3.9c-2.2,5.1-0.9,11.6,2.9,14.5L196.8,38H47c-0.6,0-1,0.5-1,1V58
	c0,0.6,0.5,1,1,1h152.3l-39.2,30.2c-3.8,2.9-5.1,9.4-2.9,14.5c2.2,5.1,7.1,6.8,10.9,3.9l50.6-39c3.8-2.9,8.4-14.5,6.2-19.6
	C227.2,43.9,222.6,33.3,218.8,30.4z"/>
</svg>
