<?xml version="1.0" encoding="utf-8"?>
<!-- Generator: Adobe Illustrator 18.1.0, SVG Export Plug-In . SVG Version: 6.00 Build 0)  -->
<svg version="1.1" id="Layer_1" xmlns="http://www.w3.org/2000/svg" xmlns:xlink="http://www.w3.org/1999/xlink" x="0px" y="0px"
	 viewBox="0 0.8 97.7 35.1" enable-background="new 0 0.8 97.7 35.1" xml:space="preserve">
<g>
	<path id="XMLID_9_" fill="#6D6E71" d="M25.7,18.9c-2.1,0.1-4.1,0.7-5.8,2c-1.9,1.4-3.7,2.9-4.7,5c-0.6,1.2-1,2.5-1,3.3
		c0.6-1,1-2.1,1.5-2.8c0.6-0.7,0.6-0.8,1-1.2c1.7-1.9,3.8-3.1,6.4-3.6c0.7-0.1,0.8,0,0.6,0.7c-0.3,0.9-0.6,1.8-1.1,2.6
		c-1.4,2.2-3.4,3.8-5.6,5.2c-1.1,0.7-2.3,1.3-3.5,2c1.4-0.1,2.7-0.6,4-1.1c2.2-0.8,4.1-2,5.6-3.8c2-2.2,2.8-4.9,3.2-7.8
		C26.3,18.8,26,18.8,25.7,18.9z"/>
	<path id="XMLID_14_" fill="#6D6E71" d="M3.8,24.7c-0.5-0.8-0.9-1.7-1.1-2.6c-0.2-0.7-0.1-0.8,0.6-0.7c2.6,0.5,4.7,1.8,6.4,3.6
		c0.4,0.4,0.4,0.5,1,1.2c0.6,0.7,1,1.8,1.5,2.8c0-0.8-0.4-2.1-1-3.3c-1.1-2-2.8-3.6-4.7-5c-1.7-1.2-3.7-1.9-5.8-2
		c-0.4,0-0.6,0-0.6,0.5c0.3,2.8,1.2,5.5,3.2,7.8c1.5,1.7,3.4,2.9,5.6,3.8c1.3,0.5,2.6,0.9,4,1.1c-1.2-0.7-2.4-1.3-3.5-2
		C7.1,28.5,5.2,26.9,3.8,24.7z"/>
	<path id="XMLID_12_" fill="#2F6631" d="M18.7,0.8c-0.6,1.5-1.7,2.6-2.8,3.6c-0.4,0.3-0.7,0.6-1.1,0.9c-1.6,1.3-2.9,2.8-3.5,4.9
		c-0.4,1.5-0.4,3-0.2,4.5c0.1,0.8,0.2,1.7,0.6,2.7c0.5-0.9,0.6-1.8,1.1-2.5c0.8-1.8,3.2-4.5,4.1-5c0,0-0.1,0.2-0.2,0.4l-1.1,1.1
		c-0.8,0.8-1.4,1.7-2,2.7l-0.2,0.5c0,0-1.3,2-1.1,4.7c0.2,2.5,0.2,1.6,0.2,2.2c0,1.1,0,2.9,0.2,6.5l0.5,0.1c-0.1-2,0-3.9,0.2-5.9
		c0.1-1,0.2-2,0.5-3c0.2-0.7,0.6-1.3,1.3-1.8c1.1-0.7,2-1.5,2.8-2.6c1.1-1.6,1.7-3.3,1.8-5.2c0.2-2.6-0.1-5.2-0.8-7.7
		C19,1.7,19.1,1.3,18.7,0.8z"/>
	<path id="XMLID_4_" fill="#6D6E71" d="M95.5,21.6c-0.2-0.4-0.4-0.6-0.7-0.8c-0.3-0.2-0.6-0.4-1-0.5c-0.4-0.1-0.8-0.1-1.2-0.1
		c-0.3,0-0.7,0-1,0.1c-0.4,0.1-0.6,0.2-0.9,0.4c-0.3,0.2-0.5,0.4-0.7,0.6c-0.2,0.2-0.2,0.6-0.2,1c0,0.3,0.1,0.6,0.2,0.8
		c0.2,0.2,0.4,0.4,0.6,0.6c0.2,0.1,0.5,0.3,0.8,0.4c0.3,0.1,0.6,0.2,0.8,0.2l2,0.5c0.4,0.1,0.8,0.2,1.3,0.4c0.4,0.2,0.8,0.4,1.1,0.6
		c0.3,0.3,0.6,0.6,0.8,1c0.2,0.4,0.3,0.8,0.3,1.4c0,0.7-0.1,1.2-0.5,1.7s-0.7,0.8-1.2,1.1c-0.5,0.3-1,0.5-1.6,0.6
		c-0.6,0.1-1.2,0.2-1.7,0.2c-1.4,0-2.6-0.4-3.5-1c-0.9-0.7-1.4-1.8-1.5-3.3h1.5c0.1,1,0.4,1.8,1.1,2.3c0.7,0.5,1.5,0.8,2.5,0.8
		c0.4,0,0.7,0,1.1-0.1s0.7-0.2,1.1-0.4c0.3-0.2,0.6-0.4,0.8-0.7c0.2-0.3,0.3-0.6,0.3-1.1c0-0.4-0.1-0.7-0.2-0.9s-0.4-0.5-0.6-0.6
		c-0.2-0.2-0.5-0.3-0.9-0.4c-0.3-0.1-0.6-0.2-1-0.3l-1.9-0.4c-0.5-0.1-0.9-0.3-1.3-0.4c-0.4-0.2-0.8-0.4-1.1-0.6
		c-0.3-0.2-0.6-0.5-0.7-0.9c-0.2-0.4-0.2-0.8-0.2-1.3c0-0.6,0.1-1.1,0.4-1.6c0.3-0.5,0.6-0.8,1.1-1.1c0.5-0.3,0.9-0.5,1.5-0.6
		c0.5-0.1,1.1-0.2,1.6-0.2c0.6,0,1.2,0.1,1.7,0.2c0.5,0.1,1,0.4,1.4,0.7c0.4,0.3,0.7,0.7,0.9,1.2c0.2,0.5,0.4,1.1,0.4,1.7h-1.5
		C95.7,22.3,95.7,21.9,95.5,21.6 M82.9,19.4c0.7,0.4,1.3,0.8,1.8,1.4c0.5,0.6,0.8,1.3,1.1,2c0.2,0.8,0.4,1.6,0.4,2.5
		c0,0.9-0.1,1.7-0.4,2.5c-0.2,0.8-0.6,1.5-1.1,2c-0.5,0.6-1.1,1.1-1.8,1.4c-0.7,0.4-1.5,0.5-2.5,0.5c-0.9,0-1.8-0.2-2.5-0.5
		c-0.7-0.4-1.3-0.8-1.8-1.4c-0.5-0.6-0.8-1.3-1.1-2c-0.2-0.8-0.4-1.6-0.4-2.5c0-0.9,0.1-1.7,0.4-2.5c0.2-0.8,0.6-1.5,1.1-2
		c0.5-0.6,1.1-1.1,1.8-1.4s1.5-0.5,2.5-0.5C81.4,18.9,82.2,19.1,82.9,19.4 M78.6,20.6c-0.5,0.3-1,0.7-1.3,1.2
		c-0.4,0.5-0.6,1.1-0.8,1.7c-0.2,0.6-0.3,1.3-0.3,1.9c0,0.6,0.1,1.3,0.3,1.9c0.2,0.6,0.5,1.2,0.8,1.7c0.4,0.5,0.8,0.9,1.3,1.2
		c0.5,0.3,1.2,0.5,1.9,0.5c0.7,0,1.3-0.1,1.9-0.5c0.5-0.3,1-0.7,1.3-1.2c0.4-0.5,0.6-1.1,0.8-1.7c0.2-0.6,0.3-1.3,0.3-1.9
		c0-0.6-0.1-1.3-0.3-1.9s-0.5-1.2-0.8-1.7c-0.4-0.5-0.8-0.9-1.3-1.2c-0.5-0.3-1.2-0.5-1.9-0.5C79.8,20.1,79.2,20.3,78.6,20.6
		 M69.7,19.2v2.8h0c0.4-1,0.9-1.8,1.8-2.3c0.8-0.5,1.8-0.8,2.8-0.7v1.5c-0.7,0-1.3,0.1-1.8,0.3s-1,0.5-1.4,0.9
		c-0.4,0.4-0.7,0.9-0.9,1.4c-0.2,0.5-0.3,1.1-0.3,1.8v6.5h-1.5V19.2H69.7z M62.8,19.4c0.7,0.4,1.3,0.8,1.8,1.4
		c0.5,0.6,0.8,1.3,1.1,2c0.2,0.8,0.4,1.6,0.4,2.5c0,0.9-0.1,1.7-0.4,2.5c-0.2,0.8-0.6,1.5-1.1,2c-0.5,0.6-1.1,1.1-1.8,1.4
		c-0.7,0.4-1.5,0.5-2.5,0.5c-0.9,0-1.8-0.2-2.5-0.5c-0.7-0.4-1.3-0.8-1.8-1.4c-0.5-0.6-0.8-1.3-1.1-2c-0.2-0.8-0.4-1.6-0.4-2.5
		c0-0.9,0.1-1.7,0.4-2.5c0.2-0.8,0.6-1.5,1.1-2c0.5-0.6,1.1-1.1,1.8-1.4s1.5-0.5,2.5-0.5C61.3,18.9,62.1,19.1,62.8,19.4 M58.5,20.6
		c-0.5,0.3-1,0.7-1.3,1.2s-0.6,1.1-0.8,1.7c-0.2,0.6-0.3,1.3-0.3,1.9c0,0.6,0.1,1.3,0.3,1.9c0.2,0.6,0.5,1.2,0.8,1.7
		c0.4,0.5,0.8,0.9,1.3,1.2c0.5,0.3,1.2,0.5,1.9,0.5s1.3-0.1,1.9-0.5c0.5-0.3,1-0.7,1.3-1.2s0.6-1.1,0.8-1.7c0.2-0.6,0.3-1.3,0.3-1.9
		c0-0.6-0.1-1.3-0.3-1.9c-0.2-0.6-0.5-1.2-0.8-1.7c-0.4-0.5-0.8-0.9-1.3-1.2c-0.5-0.3-1.2-0.5-1.9-0.5S59,20.3,58.5,20.6 M51.2,23.5
		c-0.1-0.6-0.4-1.2-0.7-1.7s-0.7-0.9-1.2-1.2c-0.5-0.3-1.1-0.5-1.8-0.5c-0.8,0-1.5,0.1-2,0.4c-0.6,0.3-1,0.7-1.3,1.1
		c-0.3,0.5-0.6,1-0.7,1.7c-0.1,0.6-0.2,1.3-0.2,2c0,0.6,0.1,1.3,0.2,1.9c0.1,0.6,0.4,1.2,0.7,1.7c0.4,0.5,0.8,0.9,1.3,1.2
		c0.5,0.3,1.2,0.5,2,0.5c0.7,0,1.3-0.1,1.8-0.5c0.5-0.3,0.9-0.7,1.2-1.2s0.6-1.1,0.7-1.7c0.1-0.6,0.2-1.3,0.2-1.9
		C51.4,24.7,51.3,24.1,51.2,23.5 M43,19.2v2.3h0c0.4-0.8,0.9-1.5,1.7-2c0.8-0.5,1.7-0.7,2.7-0.7c0.9,0,1.7,0.2,2.4,0.5
		c0.7,0.4,1.3,0.8,1.7,1.4s0.8,1.3,1,2.1c0.2,0.8,0.3,1.6,0.3,2.5c0,0.9-0.1,1.7-0.3,2.5c-0.2,0.8-0.6,1.5-1,2
		c-0.5,0.6-1,1.1-1.7,1.4s-1.5,0.5-2.4,0.5c-0.5,0-0.9-0.1-1.3-0.2c-0.5-0.1-0.8-0.3-1.2-0.5c-0.4-0.2-0.7-0.5-1-0.8
		c-0.3-0.3-0.5-0.7-0.7-1.2h0v6.8h-1.5V19.2H43z M37.3,21.6c-0.2-0.4-0.4-0.6-0.7-0.8c-0.3-0.2-0.6-0.4-1-0.5
		c-0.4-0.1-0.8-0.1-1.2-0.1c-0.3,0-0.7,0-1,0.1c-0.4,0.1-0.6,0.2-0.9,0.4c-0.3,0.2-0.5,0.4-0.7,0.6c-0.2,0.3-0.2,0.6-0.2,1
		c0,0.3,0.1,0.6,0.2,0.8c0.2,0.2,0.4,0.4,0.6,0.6c0.2,0.1,0.5,0.3,0.8,0.4c0.3,0.1,0.6,0.2,0.8,0.2l2,0.5c0.4,0.1,0.8,0.2,1.3,0.4
		c0.4,0.2,0.8,0.4,1.1,0.6c0.3,0.3,0.6,0.6,0.8,1c0.2,0.4,0.3,0.8,0.3,1.4c0,0.7-0.1,1.2-0.5,1.7c-0.3,0.5-0.7,0.8-1.2,1.1
		c-0.5,0.3-1,0.5-1.6,0.6c-0.6,0.1-1.2,0.2-1.7,0.2c-1.4,0-2.6-0.4-3.5-1c-0.9-0.7-1.4-1.8-1.5-3.3h1.5c0.1,1,0.4,1.8,1.1,2.3
		c0.7,0.5,1.5,0.8,2.5,0.8c0.4,0,0.7,0,1.1-0.1c0.4-0.1,0.7-0.2,1.1-0.4c0.3-0.2,0.6-0.4,0.8-0.7c0.2-0.3,0.3-0.6,0.3-1.1
		c0-0.4-0.1-0.7-0.2-0.9s-0.4-0.5-0.6-0.6c-0.2-0.2-0.5-0.3-0.9-0.4c-0.3-0.1-0.6-0.2-1-0.3l-1.9-0.4c-0.5-0.1-0.9-0.3-1.3-0.4
		c-0.4-0.2-0.8-0.4-1.1-0.6c-0.3-0.2-0.6-0.5-0.7-0.9c-0.2-0.4-0.2-0.8-0.2-1.3c0-0.6,0.1-1.1,0.4-1.6c0.3-0.5,0.6-0.8,1.1-1.1
		c0.5-0.3,0.9-0.5,1.5-0.6c0.5-0.1,1.1-0.2,1.6-0.2c0.6,0,1.2,0.1,1.7,0.2c0.5,0.1,1,0.4,1.4,0.7c0.4,0.3,0.7,0.7,0.9,1.2
		c0.2,0.5,0.4,1.1,0.4,1.7h-1.5C37.6,22.3,37.5,21.9,37.3,21.6"/>
</g>
</svg>
