<?xml version="1.0" encoding="utf-8"?>
<!-- Generator: Adobe Illustrator 18.1.0, SVG Export Plug-In . SVG Version: 6.00 Build 0)  -->
<svg version="1.1" id="Слой_1" xmlns="http://www.w3.org/2000/svg" xmlns:xlink="http://www.w3.org/1999/xlink" x="0px" y="0px"
	 viewBox="0 0 100 100" enable-background="new 0 0 100 100" xml:space="preserve">
<path d="M11.5,55.5c0,16.9,13.9,30.6,31,30.6c9.9,0,19.2-4.7,25.1-12.6l0.2-0.3l0.4,0.2c2.5,1.1,5.2,1.7,8,1.7
	c10.9,0,19.8-8.8,19.8-19.5S87.1,36,76.2,36c-2.8,0-5.5,0.6-8,1.7l-0.4,0.2l-0.2-0.3c-5.8-7.9-15.2-12.6-25.1-12.6h-0.9l-0.1-0.3
	C38.1,18,31.3,13.9,23.8,13.9C12.9,13.9,4,22.6,4,33.4c0,6.2,2.9,11.9,7.9,15.6l0.3,0.2l-0.1,0.3C11.7,51.5,11.5,53.5,11.5,55.5z
	 M71.2,42.8c1.5-0.6,3.2-0.9,5-0.9c7.7,0,13.9,6.1,13.9,13.7c0,3.6-1.4,7-4,9.5c-2.6,2.7-6.2,4.1-9.9,4.1c-1.7,0-3.3-0.3-4.9-0.9
	l-0.5-0.2l0.2-0.5c0.3-0.7,0.6-1.4,0.9-2.3c0-0.1,0-0.1,0.1-0.2l0.1-0.3c0-0.1,0.1-0.2,0.1-0.3c0-0.1,0-0.1,0.1-0.2
	c0-0.1,0-0.1,0.1-0.2l0-0.1c0.8-2.8,1.2-5.7,1.2-8.5c0-2.9-0.4-5.7-1.2-8.4l0-0.1c0-0.2-0.1-0.3-0.1-0.4l-0.1-0.2
	c0-0.1-0.1-0.2-0.1-0.2c0-0.1-0.1-0.2-0.1-0.3l-0.1-0.2c-0.3-0.9-0.6-1.6-0.9-2.3l-0.2-0.5L71.2,42.8z M43.5,33.4c0-0.2,0-0.4,0-0.7
	c0-0.1,0-0.2,0-0.3l0-0.5l-0.1-1.2l0.6,0c10.1,0.6,18.9,7,22.3,16.4l0.2,0.6c0,0,0,0.1,0.1,0.2c0,0,0,0.1,0,0.1l0,0.1
	c0,0.1,0,0.1,0.1,0.2l0,0.1c0.1,0.2,0.1,0.3,0.1,0.5l0,0.1c0,0.2,0.1,0.3,0.1,0.4c0,0.1,0.1,0.2,0.1,0.3l0,0.1
	c0.1,0.5,0.2,1,0.3,1.6c0,0.1,0,0.3,0.1,0.4c0,0.1,0,0.2,0.1,0.3l0,0.1c0.1,0.4,0.1,0.9,0.2,1.4l0,0.3c0,0.1,0,0.4,0,0.6v0.2
	c0,0.1,0,0.2,0,0.3c0,0.1,0,0.3,0,0.4c0,0.3,0,0.5,0,0.8l0,0.2c0,0.1,0,0.2,0,0.3c0,0.1,0,0.2,0,0.3c0,0.1,0,0.2,0,0.3L67.5,58
	c0,0.6-0.1,1.1-0.2,1.6l-0.1,0.8c-0.1,0.6-0.2,1.1-0.4,1.5l-0.2,0.7c0,0.1,0,0.2-0.1,0.3c0,0.2-0.1,0.3-0.1,0.4
	c-3.3,10.2-12.9,17.1-23.9,17.1c-13.9,0-25.2-11.1-25.2-24.8c0-0.9,0.1-1.9,0.2-3l0.1-0.6l0.6,0.2c1.3,0.4,2.7,0.6,4.2,0.8
	c0.1,0,0.2,0,0.3,0c0.1,0,0.2,0,0.4,0l0.1,0c0.1,0,0.2,0,0.4,0c0.1,0,0.2,0,0.3,0C34.7,52.9,43.5,44.2,43.5,33.4z M9.9,33.3
	c0-7.5,6.2-13.6,13.9-13.6c6,0,11.3,3.8,13.2,9.4c0,0,0,0.1,0.1,0.2c0,0,0,0.1,0,0.1l0.1,0.3c0.1,0.4,0.2,0.8,0.3,1.2
	c0,0.1,0,0.2,0.1,0.3c0,0,0,0.1,0,0.1l0,0.1c0,0.1,0,0.1,0,0.2c0,0,0,0.1,0,0.1l0,0.1c0,0.1,0,0.1,0,0.2c0,0.1,0,0.2,0,0.4l0,0.1
	l0,0.1c0,0.1,0,0.2,0,0.3c0,0.1,0,0.2,0,0.3c0,7.5-6.2,13.7-13.9,13.7c-0.2,0-0.5,0-0.7,0L23,47c-0.2,0-0.4,0-0.6,0c0,0-0.1,0-0.1,0
	l-0.1,0c0,0-0.1,0-0.1,0c-0.1,0-0.2,0-0.2,0c-0.2,0-0.2,0-0.3-0.1c-0.1,0-0.3,0-0.5-0.1l-0.5-0.1c-0.1,0-0.1,0-0.2,0
	c-0.1,0-0.2,0-0.3-0.1c-0.1,0-0.2,0-0.3-0.1c0,0-0.1,0-0.1,0c-0.1,0-0.2-0.1-0.3-0.1c-0.1,0-0.2-0.1-0.3-0.1l-0.1,0
	c-0.1,0-0.2-0.1-0.2-0.1l-1-0.4c-0.2-0.1-0.4-0.2-0.5-0.3l-0.1-0.1C12.6,42.9,9.9,38.3,9.9,33.3z"/>
</svg>
