<?xml version="1.0" encoding="utf-8"?>
<!-- Generator: Adobe Illustrator 18.1.0, SVG Export Plug-In . SVG Version: 6.00 Build 0)  -->
<svg version="1.1" id="Слой_2" xmlns="http://www.w3.org/2000/svg" xmlns:xlink="http://www.w3.org/1999/xlink" x="0px" y="0px"
	 viewBox="43 -17 185 135" enable-background="new 43 -17 185 135" xml:space="preserve">
<path d="M205.7,6c-12.3,0-22.3,10-22.3,22.3c0,3.3,0.7,6.4,2,9.2l-13.7,10.9c-7.7-8.6-18.8-14-31.2-14c-10.6,0-20.3,4-27.7,10.5
	l-18-19.9c2.4-4.1,3.8-8.9,3.8-14.1C98.7-4.5,86.2-17,70.8-17C55.5-17,43-4.5,43,10.8c0,15.4,12.5,27.8,27.8,27.8
	c6.3,0,12.2-2.1,16.8-5.7l18,20c-4.4,6.6-7,14.6-7,23.2c0,23.1,18.7,41.8,41.8,41.8s41.8-18.7,41.8-41.8c0-6.9-1.7-13.4-4.6-19.1
	L192,45.8c3.8,3,8.6,4.8,13.7,4.8c12.3,0,22.3-10,22.3-22.3S218,6,205.7,6z M70.8,28.7c-9.8,0-17.8-8-17.8-17.8S61-7,70.8-7
	c9.8,0,17.8,8,17.8,17.8S80.7,28.7,70.8,28.7z M140.5,108c-17.6,0-31.8-14.2-31.8-31.8c0-17.6,14.2-31.8,31.8-31.8
	c17.6,0,31.8,14.2,31.8,31.8C172.3,93.7,158.1,108,140.5,108z M205.7,40.8c-6.9,0-12.5-5.6-12.5-12.5s5.6-12.5,12.5-12.5
	s12.5,5.6,12.5,12.5S212.7,40.8,205.7,40.8z"/>
</svg>
